<svg xmlns="http://www.w3.org/2000/svg" viewBox="0 0 100 90" width="100%" height="100%">
  <defs>
    <linearGradient id="bj-bg" x1="0%" y1="0%" x2="0%" y2="100%">
      <stop offset="0%" stop-color="#052e16"/>
      <stop offset="100%" stop-color="#14532d"/>
    </linearGradient>
    <radialGradient id="bj-glow" cx="50%" cy="45%" r="38%">
      <stop offset="0%" stop-color="#4ade80" stop-opacity="0.35"/>
      <stop offset="70%" stop-color="#22c55e" stop-opacity="0.08"/>
      <stop offset="100%" stop-color="#14532d" stop-opacity="0"/>
    </radialGradient>
    <linearGradient id="bj-bottom-dim" x1="0%" y1="0%" x2="0%" y2="100%">
      <stop offset="0%" stop-color="#14532d" stop-opacity="0"/>
      <stop offset="70%" stop-color="#052e16" stop-opacity="0.6"/>
      <stop offset="100%" stop-color="#052e16" stop-opacity="0.95"/>
    </linearGradient>
  </defs>

  <rect width="100%" height="100%" fill="url(#bj-bg)"/>

  <circle cx="50" cy="45" r="35" fill="url(#bj-glow)"/>

  <g stroke="#4ade80" stroke-width="0.3" fill="none" opacity="0.6">
    <circle cx="50" cy="45" r="41" stroke-dasharray="3,3"/>
    <circle cx="50" cy="45" r="37"/>
    <circle cx="50" cy="45" r="25" stroke-dasharray="1,1"/>
    <circle cx="50" cy="45" r="15"/>
  </g>

  <g stroke="#22c55e" stroke-width="0.4" fill="none" opacity="0.7">
    <polygon points="50,6 83.8,25.5 83.8,64.5 50,84 16.2,64.5 16.2,25.5"/>
    <polygon points="50,20 71.7,32.5 71.7,57.5 50,70 28.3,57.5 28.3,32.5"/>
  </g>

  <g stroke="#4ade80" stroke-width="0.3" opacity="0.5">
    <line x1="50" y1="6" x2="50" y2="84"/>
    <line x1="16.2" y1="25.5" x2="83.8" y2="64.5"/>
    <line x1="16.2" y1="64.5" x2="83.8" y2="25.5"/>
    
    <circle cx="50" cy="6" r="1.0" fill="#052e16"/>
    <circle cx="50" cy="84" r="1.0" fill="#052e16"/>
    <circle cx="83.8" cy="25.5" r="1.0" fill="#052e16"/>
    <circle cx="16.2" cy="64.5" r="1.0" fill="#052e16"/>
    <circle cx="83.8" cy="64.5" r="1.0" fill="#052e16"/>
    <circle cx="16.2" cy="25.5" r="1.0" fill="#052e16"/>
  </g>

  <g stroke="#22c55e" stroke-width="0.5" fill="none" opacity="0.35">
    <path d="M 4,15 C 4,8 8,4 15,4"/>
    <path d="M 96,15 C 96,8 92,4 85,4"/>
    <path d="M 4,75 C 4,82 8,86 15,86"/>
    <path d="M 96,75 C 96,82 92,86 85,86"/>
  </g>

  <text x="50" y="52" font-family="serif" font-size="22" font-weight="bold" fill="#4ade80" opacity="0.14" text-anchor="middle">木</text>

  <rect x="0" y="60" width="100%" height="30" fill="url(#bj-bottom-dim)"/>
</svg>
